<svg width="1080" height="1012" viewBox="0 0 1080 1012" fill="none" xmlns="http://www.w3.org/2000/svg">
<circle cx="3" cy="8" r="3" fill="black" fill-opacity="0.15"/>
<circle cx="69" cy="8" r="3" fill="black" fill-opacity="0.15"/>
<circle cx="135" cy="8" r="3" fill="black" fill-opacity="0.15"/>
<circle cx="201" cy="8" r="3" fill="black" fill-opacity="0.15"/>
<circle cx="267" cy="8" r="3" fill="black" fill-opacity="0.15"/>
<circle cx="333" cy="8" r="3" fill="black" fill-opacity="0.15"/>
<circle cx="399" cy="8" r="3" fill="black" fill-opacity="0.15"/>
<circle cx="465" cy="8" r="3" fill="black" fill-opacity="0.15"/>
<circle cx="531" cy="8" r="3" fill="black" fill-opacity="0.15"/>
<circle cx="597" cy="8" r="3" fill="black" fill-opacity="0.15"/>
<circle cx="663" cy="8" r="3" fill="black" fill-opacity="0.15"/>
<circle cx="729" cy="8" r="3" fill="black" fill-opacity="0.15"/>
<circle cx="795" cy="8" r="3" fill="black" fill-opacity="0.15"/>
<circle cx="861" cy="8" r="3" fill="black" fill-opacity="0.15"/>
<circle cx="927" cy="8" r="3" fill="black" fill-opacity="0.15"/>
<circle cx="993" cy="8" r="3" fill="black" fill-opacity="0.15"/>
<circle cx="3" cy="91" r="3" fill="black" fill-opacity="0.15"/>
<circle cx="69" cy="91" r="3" fill="black" fill-opacity="0.15"/>
<circle cx="135" cy="91" r="3" fill="black" fill-opacity="0.15"/>
<circle cx="201" cy="91" r="3" fill="black" fill-opacity="0.15"/>
<circle cx="267" cy="91" r="3" fill="black" fill-opacity="0.15"/>
<circle cx="333" cy="91" r="3" fill="black" fill-opacity="0.15"/>
<circle cx="399" cy="91" r="3" fill="black" fill-opacity="0.15"/>
<circle cx="465" cy="91" r="3" fill="black" fill-opacity="0.15"/>
<circle cx="531" cy="91" r="3" fill="black" fill-opacity="0.15"/>
<circle cx="597" cy="91" r="3" fill="black" fill-opacity="0.15"/>
<circle cx="663" cy="91" r="3" fill="black" fill-opacity="0.15"/>
<circle cx="729" cy="91" r="3" fill="black" fill-opacity="0.15"/>
<circle cx="795" cy="91" r="3" fill="black" fill-opacity="0.15"/>
<circle cx="861" cy="91" r="3" fill="black" fill-opacity="0.15"/>
<circle cx="927" cy="91" r="3" fill="black" fill-opacity="0.15"/>
<circle cx="993" cy="91" r="3" fill="black" fill-opacity="0.15"/>
<circle cx="3" cy="174" r="3" fill="black" fill-opacity="0.15"/>
<circle cx="69" cy="174" r="3" fill="black" fill-opacity="0.15"/>
<circle cx="135" cy="174" r="3" fill="black" fill-opacity="0.15"/>
<circle cx="201" cy="174" r="3" fill="black" fill-opacity="0.15"/>
<circle cx="267" cy="174" r="3" fill="black" fill-opacity="0.15"/>
<circle cx="333" cy="174" r="3" fill="black" fill-opacity="0.15"/>
<circle cx="399" cy="174" r="3" fill="black" fill-opacity="0.15"/>
<circle cx="465" cy="174" r="3" fill="black" fill-opacity="0.15"/>
<circle cx="531" cy="174" r="3" fill="black" fill-opacity="0.15"/>
<circle cx="597" cy="174" r="3" fill="black" fill-opacity="0.15"/>
<circle cx="663" cy="174" r="3" fill="black" fill-opacity="0.15"/>
<circle cx="729" cy="174" r="3" fill="black" fill-opacity="0.15"/>
<circle cx="795" cy="174" r="3" fill="black" fill-opacity="0.15"/>
<circle cx="861" cy="174" r="3" fill="black" fill-opacity="0.15"/>
<circle cx="927" cy="174" r="3" fill="black" fill-opacity="0.15"/>
<circle cx="993" cy="174" r="3" fill="black" fill-opacity="0.15"/>
<circle cx="3" cy="257" r="3" fill="black" fill-opacity="0.15"/>
<circle cx="69" cy="257" r="3" fill="black" fill-opacity="0.15"/>
<circle cx="135" cy="257" r="3" fill="black" fill-opacity="0.15"/>
<circle cx="201" cy="257" r="3" fill="black" fill-opacity="0.15"/>
<circle cx="267" cy="257" r="3" fill="black" fill-opacity="0.15"/>
<circle cx="333" cy="257" r="3" fill="black" fill-opacity="0.15"/>
<circle cx="399" cy="257" r="3" fill="black" fill-opacity="0.15"/>
<circle cx="465" cy="257" r="3" fill="black" fill-opacity="0.15"/>
<circle cx="531" cy="257" r="3" fill="black" fill-opacity="0.15"/>
<circle cx="597" cy="257" r="3" fill="black" fill-opacity="0.15"/>
<circle cx="663" cy="257" r="3" fill="black" fill-opacity="0.15"/>
<circle cx="729" cy="257" r="3" fill="black" fill-opacity="0.15"/>
<circle cx="795" cy="257" r="3" fill="black" fill-opacity="0.15"/>
<circle cx="861" cy="257" r="3" fill="black" fill-opacity="0.15"/>
<circle cx="927" cy="257" r="3" fill="black" fill-opacity="0.15"/>
<circle cx="993" cy="257" r="3" fill="black" fill-opacity="0.15"/>
<circle cx="3" cy="340" r="3" fill="black" fill-opacity="0.15"/>
<circle cx="69" cy="340" r="3" fill="black" fill-opacity="0.15"/>
<circle cx="135" cy="340" r="3" fill="black" fill-opacity="0.15"/>
<circle cx="201" cy="340" r="3" fill="black" fill-opacity="0.15"/>
<circle cx="267" cy="340" r="3" fill="black" fill-opacity="0.15"/>
<circle cx="333" cy="340" r="3" fill="black" fill-opacity="0.15"/>
<circle cx="399" cy="340" r="3" fill="black" fill-opacity="0.15"/>
<circle cx="465" cy="340" r="3" fill="black" fill-opacity="0.15"/>
<circle cx="531" cy="340" r="3" fill="black" fill-opacity="0.15"/>
<circle cx="597" cy="340" r="3" fill="black" fill-opacity="0.15"/>
<circle cx="663" cy="340" r="3" fill="black" fill-opacity="0.15"/>
<circle cx="729" cy="340" r="3" fill="black" fill-opacity="0.15"/>
<circle cx="795" cy="340" r="3" fill="black" fill-opacity="0.15"/>
<circle cx="861" cy="340" r="3" fill="black" fill-opacity="0.15"/>
<circle cx="927" cy="340" r="3" fill="black" fill-opacity="0.15"/>
<circle cx="993" cy="340" r="3" fill="black" fill-opacity="0.15"/>
<circle cx="3" cy="423" r="3" fill="black" fill-opacity="0.15"/>
<circle cx="69" cy="423" r="3" fill="black" fill-opacity="0.15"/>
<circle cx="135" cy="423" r="3" fill="black" fill-opacity="0.15"/>
<circle cx="201" cy="423" r="3" fill="black" fill-opacity="0.15"/>
<circle cx="267" cy="423" r="3" fill="black" fill-opacity="0.15"/>
<circle cx="333" cy="423" r="3" fill="black" fill-opacity="0.15"/>
<circle cx="399" cy="423" r="3" fill="black" fill-opacity="0.15"/>
<circle cx="465" cy="423" r="3" fill="black" fill-opacity="0.15"/>
<circle cx="531" cy="423" r="3" fill="black" fill-opacity="0.15"/>
<circle cx="597" cy="423" r="3" fill="black" fill-opacity="0.15"/>
<circle cx="663" cy="423" r="3" fill="black" fill-opacity="0.15"/>
<circle cx="729" cy="423" r="3" fill="black" fill-opacity="0.15"/>
<circle cx="795" cy="423" r="3" fill="black" fill-opacity="0.15"/>
<circle cx="861" cy="423" r="3" fill="black" fill-opacity="0.15"/>
<circle cx="927" cy="423" r="3" fill="black" fill-opacity="0.15"/>
<circle cx="993" cy="423" r="3" fill="black" fill-opacity="0.15"/>
<circle cx="3" cy="506" r="3" fill="black" fill-opacity="0.15"/>
<circle cx="69" cy="506" r="3" fill="black" fill-opacity="0.15"/>
<circle cx="135" cy="506" r="3" fill="black" fill-opacity="0.15"/>
<circle cx="201" cy="506" r="3" fill="black" fill-opacity="0.15"/>
<circle cx="267" cy="506" r="3" fill="black" fill-opacity="0.15"/>
<circle cx="333" cy="506" r="3" fill="black" fill-opacity="0.15"/>
<circle cx="399" cy="506" r="3" fill="black" fill-opacity="0.15"/>
<circle cx="465" cy="506" r="3" fill="black" fill-opacity="0.15"/>
<circle cx="531" cy="506" r="3" fill="black" fill-opacity="0.15"/>
<circle cx="597" cy="506" r="3" fill="black" fill-opacity="0.15"/>
<circle cx="663" cy="506" r="3" fill="black" fill-opacity="0.15"/>
<circle cx="729" cy="506" r="3" fill="black" fill-opacity="0.15"/>
<circle cx="795" cy="506" r="3" fill="black" fill-opacity="0.15"/>
<circle cx="861" cy="506" r="3" fill="black" fill-opacity="0.15"/>
<circle cx="927" cy="506" r="3" fill="black" fill-opacity="0.15"/>
<circle cx="993" cy="506" r="3" fill="black" fill-opacity="0.15"/>
<circle cx="3" cy="589" r="3" fill="black" fill-opacity="0.15"/>
<circle cx="69" cy="589" r="3" fill="black" fill-opacity="0.15"/>
<circle cx="135" cy="589" r="3" fill="black" fill-opacity="0.15"/>
<circle cx="201" cy="589" r="3" fill="black" fill-opacity="0.15"/>
<circle cx="267" cy="589" r="3" fill="black" fill-opacity="0.15"/>
<circle cx="333" cy="589" r="3" fill="black" fill-opacity="0.15"/>
<circle cx="399" cy="589" r="3" fill="black" fill-opacity="0.15"/>
<circle cx="465" cy="589" r="3" fill="black" fill-opacity="0.15"/>
<circle cx="531" cy="589" r="3" fill="black" fill-opacity="0.15"/>
<circle cx="597" cy="589" r="3" fill="black" fill-opacity="0.15"/>
<circle cx="663" cy="589" r="3" fill="black" fill-opacity="0.15"/>
<circle cx="729" cy="589" r="3" fill="black" fill-opacity="0.15"/>
<circle cx="795" cy="589" r="3" fill="black" fill-opacity="0.15"/>
<circle cx="861" cy="589" r="3" fill="black" fill-opacity="0.15"/>
<circle cx="927" cy="589" r="3" fill="black" fill-opacity="0.15"/>
<circle cx="993" cy="589" r="3" fill="black" fill-opacity="0.15"/>
<circle cx="3" cy="672" r="3" fill="black" fill-opacity="0.15"/>
<circle cx="69" cy="672" r="3" fill="black" fill-opacity="0.15"/>
<circle cx="135" cy="672" r="3" fill="black" fill-opacity="0.15"/>
<circle cx="201" cy="672" r="3" fill="black" fill-opacity="0.15"/>
<circle cx="267" cy="672" r="3" fill="black" fill-opacity="0.15"/>
<circle cx="333" cy="672" r="3" fill="black" fill-opacity="0.15"/>
<circle cx="399" cy="672" r="3" fill="black" fill-opacity="0.15"/>
<circle cx="465" cy="672" r="3" fill="black" fill-opacity="0.15"/>
<circle cx="531" cy="672" r="3" fill="black" fill-opacity="0.15"/>
<circle cx="597" cy="672" r="3" fill="black" fill-opacity="0.15"/>
<circle cx="663" cy="672" r="3" fill="black" fill-opacity="0.15"/>
<circle cx="729" cy="672" r="3" fill="black" fill-opacity="0.15"/>
<circle cx="795" cy="672" r="3" fill="black" fill-opacity="0.15"/>
<circle cx="861" cy="672" r="3" fill="black" fill-opacity="0.15"/>
<circle cx="927" cy="672" r="3" fill="black" fill-opacity="0.15"/>
<circle cx="993" cy="672" r="3" fill="black" fill-opacity="0.15"/>
<circle cx="3" cy="755" r="3" fill="black" fill-opacity="0.15"/>
<circle cx="69" cy="755" r="3" fill="black" fill-opacity="0.15"/>
<circle cx="135" cy="755" r="3" fill="black" fill-opacity="0.15"/>
<circle cx="201" cy="755" r="3" fill="black" fill-opacity="0.15"/>
<circle cx="267" cy="755" r="3" fill="black" fill-opacity="0.15"/>
<circle cx="333" cy="755" r="3" fill="black" fill-opacity="0.15"/>
<circle cx="399" cy="755" r="3" fill="black" fill-opacity="0.15"/>
<circle cx="465" cy="755" r="3" fill="black" fill-opacity="0.15"/>
<circle cx="531" cy="755" r="3" fill="black" fill-opacity="0.15"/>
<circle cx="597" cy="755" r="3" fill="black" fill-opacity="0.15"/>
<circle cx="663" cy="755" r="3" fill="black" fill-opacity="0.15"/>
<circle cx="729" cy="755" r="3" fill="black" fill-opacity="0.15"/>
<circle cx="795" cy="755" r="3" fill="black" fill-opacity="0.15"/>
<circle cx="861" cy="755" r="3" fill="black" fill-opacity="0.15"/>
<circle cx="927" cy="755" r="3" fill="black" fill-opacity="0.15"/>
<circle cx="993" cy="755" r="3" fill="black" fill-opacity="0.15"/>
<circle cx="3" cy="838" r="3" fill="black" fill-opacity="0.15"/>
<circle cx="69" cy="838" r="3" fill="black" fill-opacity="0.15"/>
<circle cx="135" cy="838" r="3" fill="black" fill-opacity="0.15"/>
<circle cx="201" cy="838" r="3" fill="black" fill-opacity="0.15"/>
<circle cx="267" cy="838" r="3" fill="black" fill-opacity="0.15"/>
<circle cx="333" cy="838" r="3" fill="black" fill-opacity="0.15"/>
<circle cx="399" cy="838" r="3" fill="black" fill-opacity="0.15"/>
<circle cx="465" cy="838" r="3" fill="black" fill-opacity="0.15"/>
<circle cx="531" cy="838" r="3" fill="black" fill-opacity="0.15"/>
<circle cx="597" cy="838" r="3" fill="black" fill-opacity="0.15"/>
<circle cx="663" cy="838" r="3" fill="black" fill-opacity="0.15"/>
<circle cx="729" cy="838" r="3" fill="black" fill-opacity="0.15"/>
<circle cx="795" cy="838" r="3" fill="black" fill-opacity="0.15"/>
<circle cx="861" cy="838" r="3" fill="black" fill-opacity="0.15"/>
<circle cx="927" cy="838" r="3" fill="black" fill-opacity="0.15"/>
<circle cx="993" cy="838" r="3" fill="black" fill-opacity="0.15"/>
<circle cx="3" cy="921" r="3" fill="black" fill-opacity="0.15"/>
<circle cx="69" cy="921" r="3" fill="black" fill-opacity="0.15"/>
<circle cx="135" cy="921" r="3" fill="black" fill-opacity="0.15"/>
<circle cx="201" cy="921" r="3" fill="black" fill-opacity="0.15"/>
<circle cx="267" cy="921" r="3" fill="black" fill-opacity="0.15"/>
<circle cx="333" cy="921" r="3" fill="black" fill-opacity="0.15"/>
<circle cx="399" cy="921" r="3" fill="black" fill-opacity="0.15"/>
<circle cx="465" cy="921" r="3" fill="black" fill-opacity="0.15"/>
<circle cx="531" cy="921" r="3" fill="black" fill-opacity="0.15"/>
<circle cx="597" cy="921" r="3" fill="black" fill-opacity="0.15"/>
<circle cx="663" cy="921" r="3" fill="black" fill-opacity="0.15"/>
<circle cx="729" cy="921" r="3" fill="black" fill-opacity="0.15"/>
<circle cx="795" cy="921" r="3" fill="black" fill-opacity="0.15"/>
<circle cx="861" cy="921" r="3" fill="black" fill-opacity="0.15"/>
<circle cx="927" cy="921" r="3" fill="black" fill-opacity="0.15"/>
<circle cx="993" cy="921" r="3" fill="black" fill-opacity="0.15"/>
<circle cx="3" cy="1004" r="3" fill="black" fill-opacity="0.15"/>
<circle cx="69" cy="1004" r="3" fill="black" fill-opacity="0.15"/>
<circle cx="135" cy="1004" r="3" fill="black" fill-opacity="0.15"/>
<circle cx="201" cy="1004" r="3" fill="black" fill-opacity="0.15"/>
<circle cx="267" cy="1004" r="3" fill="black" fill-opacity="0.15"/>
<circle cx="333" cy="1004" r="3" fill="black" fill-opacity="0.15"/>
<circle cx="399" cy="1004" r="3" fill="black" fill-opacity="0.15"/>
<circle cx="465" cy="1004" r="3" fill="black" fill-opacity="0.15"/>
<circle cx="531" cy="1004" r="3" fill="black" fill-opacity="0.15"/>
<circle cx="597" cy="1004" r="3" fill="black" fill-opacity="0.15"/>
<circle cx="663" cy="1004" r="3" fill="black" fill-opacity="0.15"/>
<circle cx="729" cy="1004" r="3" fill="black" fill-opacity="0.15"/>
<circle cx="795" cy="1004" r="3" fill="black" fill-opacity="0.15"/>
<circle cx="861" cy="1004" r="3" fill="black" fill-opacity="0.15"/>
<circle cx="927" cy="1004" r="3" fill="black" fill-opacity="0.15"/>
<circle cx="993" cy="1004" r="3" fill="black" fill-opacity="0.15"/>
</svg>
