<svg width="116" height="98" viewBox="0 0 116 98" fill="none" xmlns="http://www.w3.org/2000/svg">
<path d="M107.092 50.2917L115.375 58.6342L76.7392 97.625L56.2083 76.9167L64.4917 68.5742L76.7392 80.8808L107.092 50.2917ZM41.4167 76.9167L59.1667 94.6667H0V82.8333C0 69.7575 21.1817 59.1667 47.3333 59.1667L58.5158 59.8175L41.4167 76.9167ZM47.3333 0C53.6101 0 59.6298 2.49344 64.0682 6.9318C68.5066 11.3702 71 17.3899 71 23.6667C71 29.9435 68.5066 35.9632 64.0682 40.4015C59.6298 44.8399 53.6101 47.3333 47.3333 47.3333C41.0565 47.3333 35.0368 44.8399 30.5985 40.4015C26.1601 35.9632 23.6667 29.9435 23.6667 23.6667C23.6667 17.3899 26.1601 11.3702 30.5985 6.9318C35.0368 2.49344 41.0565 0 47.3333 0Z" fill="#193E74"/>
</svg>
