<svg width="50" height="50" viewBox="0 0 50 50" fill="none" xmlns="http://www.w3.org/2000/svg">
<path d="M17.891 16.1161C17.4028 15.628 16.6114 15.628 16.1232 16.1161C15.635 16.6043 15.635 17.3957 16.1232 17.8839L17.0071 17L17.891 16.1161ZM33.0071 34.25C33.6974 34.25 34.2571 33.6904 34.2571 33L34.2571 21.75C34.2571 21.0596 33.6974 20.5 33.0071 20.5C32.3167 20.5 31.7571 21.0596 31.7571 21.75V31.75H21.7571C21.0667 31.75 20.5071 32.3096 20.5071 33C20.5071 33.6904 21.0667 34.25 21.7571 34.25L33.0071 34.25ZM17.0071 17L16.1232 17.8839L32.1232 33.8839L33.0071 33L33.891 32.1161L17.891 16.1161L17.0071 17Z" fill="#727272"/>
<circle cx="25" cy="25" r="24.5" stroke="black" stroke-opacity="0.1"/>
</svg>
