<svg width="465" height="465" viewBox="0 0 465 465" fill="none" xmlns="http://www.w3.org/2000/svg">
<path d="M229.811 463H406.189C437.565 463 463 437.565 463 406.189V229.811C463 198.435 437.565 173 406.189 173H229.811C198.435 173 173 198.435 173 229.811V406.189C173 437.565 198.435 463 229.811 463Z" stroke="#F1F2F2" stroke-opacity="0.2" stroke-width="4" stroke-miterlimit="10"/>
<path d="M58.8114 292H235.189C266.565 292 292 266.565 292 235.189V58.8114C292 27.4353 266.565 2 235.189 2H58.8114C27.4353 2 2 27.4353 2 58.8114V235.189C2 266.565 27.4353 292 58.8114 292Z" stroke="#F1F2F2" stroke-opacity="0.2" stroke-width="4" stroke-miterlimit="10"/>
</svg>
