<svg width="586" height="807" viewBox="0 0 586 807" fill="none" xmlns="http://www.w3.org/2000/svg">
<path d="M399.275 805H706.154C760.745 805 805 760.745 805 706.154V399.275C805 344.683 760.745 300.428 706.154 300.428H399.275C344.683 300.428 300.428 344.683 300.428 399.275V706.154C300.428 760.745 344.683 805 399.275 805Z" stroke="#F1F2F2" stroke-opacity="0.1" stroke-width="4" stroke-miterlimit="10"/>
<path d="M100.846 506.572H407.726C462.317 506.572 506.572 462.317 506.572 407.726V100.846C506.572 46.2551 462.317 2.00015 407.726 2.00015H100.846C46.2551 2.00015 2.00015 46.2551 2.00015 100.846V407.726C2.00015 462.317 46.2551 506.572 100.846 506.572Z" stroke="#F1F2F2" stroke-opacity="0.1" stroke-width="4" stroke-miterlimit="10"/>
</svg>
