<svg width="22" height="22" viewBox="0 0 22 22" fill="none" xmlns="http://www.w3.org/2000/svg">
<path d="M11 22C9.55546 22 8.12506 21.7155 6.79048 21.1627C5.4559 20.6099 4.24327 19.7996 3.22183 18.7782C2.20038 17.7567 1.39013 16.5441 0.837325 15.2095C0.284524 13.8749 1.36338e-06 12.4445 1.42652e-06 11C1.48967e-06 9.55546 0.284525 8.12506 0.837328 6.79048C1.39013 5.4559 2.20038 4.24327 3.22183 3.22182C4.24327 2.20038 5.4559 1.39013 6.79048 0.837324C8.12507 0.284523 9.55546 -6.70254e-07 11 -4.80825e-07L11 11L11 22Z" fill="#84BAFF"/>
<path d="M4.00532 12.1738C4.00532 11.1634 4.20434 10.1628 4.59102 9.2293C4.9777 8.29578 5.54446 7.44756 6.25895 6.73307C6.97344 6.01859 7.82166 5.45182 8.75518 5.06515C9.6887 4.67847 10.6892 4.47945 11.6997 4.47945C12.7101 4.47945 13.7107 4.67847 14.6442 5.06515C15.5777 5.45182 16.4259 6.01859 17.1404 6.73307C17.8549 7.44756 18.4217 8.29578 18.8083 9.2293C19.195 10.1628 19.394 11.1634 19.394 12.1738L11.6997 12.1738L4.00532 12.1738Z" fill="#2364B6"/>
<path d="M10.9125 7.45188C11.544 7.45188 12.1694 7.57627 12.7528 7.81794C13.3363 8.05961 13.8664 8.41384 14.3129 8.86039C14.7595 9.30695 15.1137 9.83708 15.3554 10.4205C15.5971 11.004 15.7215 11.6293 15.7215 12.2609C15.7215 12.8924 15.5971 13.5177 15.3554 14.1012C15.1137 14.6846 14.7595 15.2148 14.3129 15.6613C13.8664 16.1079 13.3363 16.4621 12.7528 16.7038C12.1694 16.9454 11.544 17.0698 10.9125 17.0698L10.9125 12.2609L10.9125 7.45188Z" fill="#030057"/>
</svg>
