<svg width="157" height="155" viewBox="0 0 157 155" fill="none" xmlns="http://www.w3.org/2000/svg">
<path d="M78.6356 155C68.363 155 58.191 152.999 48.7003 149.111C39.2097 145.224 30.5863 139.525 23.3225 132.342C16.0587 125.158 10.2967 116.63 6.36552 107.244C2.43437 97.8585 0.411037 87.7989 0.411038 77.6398C0.411039 67.4807 2.43438 57.4211 6.36553 48.0353C10.2967 38.6495 16.0587 30.1214 23.3225 22.9378C30.5863 15.7543 39.2097 10.0559 48.7003 6.16823C58.191 2.28052 68.363 0.279536 78.6356 0.279538L78.6356 77.6398L78.6356 155Z" fill="#84BAFF"/>
<path d="M28.8935 85.8936C28.8935 78.7875 30.3088 71.7509 33.0586 65.1857C35.8084 58.6204 39.8388 52.6551 44.9198 47.6303C50.0007 42.6055 56.0327 38.6196 62.6713 35.9002C69.3099 33.1808 76.425 31.7811 83.6106 31.7811C90.7961 31.7811 97.9113 33.1808 104.55 35.9002C111.188 38.6196 117.22 42.6055 122.301 47.6303C127.382 52.6551 131.413 58.6205 134.163 65.1857C136.912 71.7509 138.328 78.7875 138.328 85.8936L83.6106 85.8936L28.8935 85.8936Z" fill="#2364B6"/>
<path d="M78.014 52.688C82.505 52.688 86.952 53.5628 91.1011 55.2624C95.2502 56.9621 99.0202 59.4532 102.196 62.5937C105.371 65.7343 107.89 69.4626 109.609 73.5658C111.328 77.6691 112.212 82.067 112.212 86.5083C112.212 90.9497 111.328 95.3475 109.609 99.4508C107.89 103.554 105.371 107.282 102.196 110.423C99.0202 113.563 95.2502 116.055 91.1011 117.754C86.952 119.454 82.505 120.329 78.014 120.329L78.014 86.5083L78.014 52.688Z" fill="#030057"/>
</svg>
