<svg width="51" height="36" viewBox="0 0 51 36" fill="none" xmlns="http://www.w3.org/2000/svg">
<path d="M49.9766 6.1086C50.6407 5.42878 51.0082 4.51828 50.9999 3.57319C50.9916 2.6281 50.6082 1.72404 49.9322 1.05573C49.2563 0.38743 48.3419 0.00834884 47.3861 0.00013626C46.4302 -0.00807632 45.5093 0.355237 44.8217 1.01183L18.2088 27.3247L6.17826 15.4298C5.49069 14.7733 4.5698 14.4099 3.61393 14.4182C2.65807 14.4264 1.7437 14.8055 1.06777 15.4738C0.391848 16.1421 0.00844404 17.0461 0.000137814 17.9912C-0.00816842 18.9363 0.359289 19.8468 1.02337 20.5266L15.6058 34.9447C16.2895 35.6204 17.2166 36 18.1833 36C19.1499 36 20.0771 35.6204 20.7607 34.9447L49.9256 6.1086H49.9766Z" fill="#80B4F7"/>
</svg>
